<svg xmlns="http://www.w3.org/2000/svg" width="169.827" height="47.445" viewBox="0 0 169.827 47.445">
  <g id="TImebit_Style_1" data-name="TImebit Style 1" transform="translate(-2.037 -0.867)">
    <g id="icons" transform="translate(2.037 0.867)">
      <path id="Path_9793" data-name="Path 9793" d="M43.743,26.144A18.94,18.94,0,0,1,12.258,37.715l-.082-.072c-.174-.164-.348-.328-.512-.492l-.072-.072c-.236-.236-.451-.461-.666-.7h0a18.286,18.286,0,0,1-4.018-7.021h0A18.933,18.933,0,0,1,41.847,15.106h0l.041.072a12.876,12.876,0,0,1,.553,1.209l2.521-3.515A22.792,22.792,0,1,0,47.494,20.6Z" transform="translate(-2.037 -0.867)" fill="#3967d6"/>
      <path id="Path_9794" data-name="Path 9794" d="M9.331,29.22h0l3.044-3.505a12.579,12.579,0,0,1,.051-4.018,2.189,2.189,0,0,1-3.085.215A2.146,2.146,0,0,1,8.716,21a16.739,16.739,0,0,0,.635,8.2Z" transform="translate(-1.877 -0.366)" fill="#3967d6"/>
      <path id="Path_9795" data-name="Path 9795" d="M18.974,11.827a2.162,2.162,0,0,1-.266,1.035,12.961,12.961,0,0,1,6.4-1.681,11.86,11.86,0,0,1,1.6.113,2.19,2.19,0,0,1-.277-3.075,2.255,2.255,0,0,1,.9-.646A16.237,16.237,0,0,0,25.1,7.41,16.756,16.756,0,0,0,16.77,9.624,2.213,2.213,0,0,1,18.974,11.827Z" transform="translate(-1.671 -0.705)" fill="#3967d6"/>
      <path id="Path_9796" data-name="Path 9796" d="M12.908,20a13.107,13.107,0,0,1,4.274-6.078h-.236a2.2,2.2,0,0,1-2.2-2.193,2.154,2.154,0,0,1,.164-.84A16.8,16.8,0,0,0,9.3,18.843a2.186,2.186,0,0,1,3.085.143,2.134,2.134,0,0,1,.512.974Z" transform="translate(-1.857 -0.618)" fill="#3967d6"/>
      <path id="Path_9797" data-name="Path 9797" d="M35.01,11.042l-.154-.123-.2-.154A16.76,16.76,0,0,0,29.424,8.08a2.2,2.2,0,0,1-.041,3.1,2.168,2.168,0,0,1-.953.543,12.85,12.85,0,0,1,3.936,2.04l.4.307h0a14.127,14.127,0,0,1,1.619,1.609L36.363,12.2C35.932,11.8,35.481,11.411,35.01,11.042Z" transform="translate(-1.38 -0.688)" fill="#3967d6"/>
      <path id="Path_9798" data-name="Path 9798" d="M37.079,16.523l4.356,5.719L51.929,7.36l-7.471,3.167,3.126-.051L40.83,19.382l-3.895-5.944-8.855,15.2Z" transform="translate(-1.389 -0.706)" fill="#3967d6"/>
      <path id="Path_9799" data-name="Path 9799" d="M41.045,26.665l-3.485-5.678L29.177,35.776l-3.587-4.52-3.936,6.631-6.621-7.574-3.187,3.6-1.9-2.982,5.094-5.719,6.078,6.939,4.069-6.836c1.527,1.947,1.9,2.347,3.413,4.294L37.54,17.554l3.649,6.5L52.227,8.35l-.974,6-.717-2.46Z" transform="translate(-1.84 -0.681)" fill="#f0803a"/>
    </g>
    <g id="text" transform="translate(55.283 5.564)">
      <path id="Path_9800" data-name="Path 9800" d="M61.6,8.75H53.99V5.45H73.176v3.3H65.5V29.084H61.6Z" transform="translate(-53.99 -5.45)" fill="#f0803a"/>
      <path id="Path_9801" data-name="Path 9801" d="M74.97,5.46h3.966V8.822H74.97Zm.1,5.955h3.71l.031,17.679H75.062l.01-17.679Z" transform="translate(-53.468 -5.45)" fill="#f0803a"/>
      <path id="Path_9802" data-name="Path 9802" d="M107.053,12.337q1.737,1.553,1.732,4.878V28.971h-3.741V17.707c0-2.48-1.4-3.71-4.223-3.71a6.4,6.4,0,0,0-3.444.953,8.873,8.873,0,0,1,.246,2.265V28.971h-3.71V17.707c0-2.48-1.4-3.71-4.223-3.71a11.124,11.124,0,0,0-3.751.666V28.971H82.21V12.644a16.711,16.711,0,0,1,3.884-1.322,19.6,19.6,0,0,1,4.366-.492,8.189,8.189,0,0,1,5.165,1.353,13.79,13.79,0,0,1,5.955-1.353C104.1,10.789,105.916,11.3,107.053,12.337Z" transform="translate(-53.288 -5.316)" fill="#f0803a"/>
      <path id="Path_9803" data-name="Path 9803" d="M125.229,13.382c1.25,1.732,1.865,4.151,1.835,7.277H114.949a5.87,5.87,0,0,0,1.476,3.874,5.02,5.02,0,0,0,3.772,1.322,11.076,11.076,0,0,0,3.023-.389,11.428,11.428,0,0,0,2.552-1.015v3.372A15.3,15.3,0,0,1,119.612,29a7.953,7.953,0,0,1-6.108-2.357,9.41,9.41,0,0,1-2.224-6.682c0-2.952.707-5.217,2.1-6.8a7.435,7.435,0,0,1,5.9-2.357Q123.358,10.779,125.229,13.382Zm-8.712,1.4a5.491,5.491,0,0,0-1.384,3.362h8.609a5.522,5.522,0,0,0-1.271-3.31,4.064,4.064,0,0,0-3.013-1.066,4.119,4.119,0,0,0-2.941,1.015Z" transform="translate(-52.564 -5.317)" fill="#f0803a"/>
      <path id="Path_9804" data-name="Path 9804" d="M146.954,18.537a5.749,5.749,0,0,1,1.179,3.679,5.952,5.952,0,0,1-2.337,5.165,10.562,10.562,0,0,1-6.344,1.7H129.9V5.48h8.753c2.767,0,4.807.553,6.139,1.66a5.868,5.868,0,0,1,2.009,4.745,4.5,4.5,0,0,1-.758,2.747,7.649,7.649,0,0,1-2.07,1.824A6.463,6.463,0,0,1,146.954,18.537Zm-13.17-3.228h5.309a4.966,4.966,0,0,0,2.706-.666,2.706,2.706,0,0,0,1.045-2.46A3.091,3.091,0,0,0,141.8,9.528a5.021,5.021,0,0,0-3.023-.779h-4.981Zm9.06,9.685a3.249,3.249,0,0,0,1.271-2.952,2.962,2.962,0,0,0-1.322-2.849,7.347,7.347,0,0,0-3.495-.728h-5.483v7.379h5.6a6.061,6.061,0,0,0,3.433-.851Z" transform="translate(-52.1 -5.449)" fill="#3967d6"/>
      <path id="Path_9805" data-name="Path 9805" d="M150.74,5.45h3.966V8.842H150.74Zm.1,5.955h3.71l.031,17.679h-3.751l.01-17.679Z" transform="translate(-51.582 -5.45)" fill="#3967d6"/>
      <path id="Path_9806" data-name="Path 9806" d="M161.233,27.772a4.862,4.862,0,0,1-1.384-3.71V14.51h-2.87V11.425h2.87V5.45h3.823v5.965H168V14.5h-4.325v8.814a3.1,3.1,0,0,0,.461,1.9,1.936,1.936,0,0,0,1.63.584,4.144,4.144,0,0,0,1.179-.164,4.187,4.187,0,0,0,1.045-.41v3.3a6.951,6.951,0,0,1-2.952.564A5.4,5.4,0,0,1,161.233,27.772Z" transform="translate(-51.426 -5.45)" fill="#3967d6"/>
    </g>
    <rect id="Rectangle_1891" data-name="Rectangle 1891" width="78.22" height="15.168" transform="translate(62.048 33.144)" fill="none"/>
    <g id="Group_6392" data-name="Group 6392" transform="translate(63.226 33.523)" style="isolation: isolate">
      <path id="Path_9807" data-name="Path 9807" d="M62.867,33.8v2.747h3.956v.974H62.867v3.187H61.74V32.82h5.565V33.8Z" transform="translate(-61.74 -32.728)" fill="#a7a7a7"/>
      <path id="Path_9808" data-name="Path 9808" d="M70.72,32.82h1.127v7.892H70.72Z" transform="translate(-61.516 -32.728)" fill="#a7a7a7"/>
      <path id="Path_9809" data-name="Path 9809" d="M82.9,32.82v7.892h-.922l-4.735-5.883v5.883H76.12V32.82h.922L81.777,38.7V32.82Z" transform="translate(-61.382 -32.728)" fill="#a7a7a7"/>
      <path id="Path_9810" data-name="Path 9810" d="M92.1,38.744H87.909l-.871,1.968H85.88l3.577-7.892h1.117l3.587,7.892H92.972Zm-.4-.9L90,33.978l-1.7,3.864Z" transform="translate(-61.139 -32.728)" fill="#a7a7a7"/>
      <path id="Path_9811" data-name="Path 9811" d="M103.875,32.82v7.892h-.922l-4.735-5.883v5.883H97.09V32.82h.922l4.735,5.883V32.82Z" transform="translate(-60.86 -32.728)" fill="#a7a7a7"/>
      <path id="Path_9812" data-name="Path 9812" d="M109.42,40.283a3.829,3.829,0,0,1-1.5-1.445,4.217,4.217,0,0,1,0-4.141,3.829,3.829,0,0,1,1.5-1.445,4.39,4.39,0,0,1,2.142-.523,4.514,4.514,0,0,1,1.691.307,3.473,3.473,0,0,1,1.312.922l-.728.707a2.933,2.933,0,0,0-2.224-.933,3.285,3.285,0,0,0-1.589.389,2.821,2.821,0,0,0-1.107,1.086,3.2,3.2,0,0,0,0,3.1,2.821,2.821,0,0,0,1.107,1.086,3.181,3.181,0,0,0,1.589.4,2.974,2.974,0,0,0,2.224-.943l.728.707a3.4,3.4,0,0,1-1.312.922,4.338,4.338,0,0,1-1.7.318A4.235,4.235,0,0,1,109.42,40.283Z" transform="translate(-60.604 -32.73)" fill="#a7a7a7"/>
      <path id="Path_9813" data-name="Path 9813" d="M123.679,39.728v.984H117.95V32.82h5.565V33.8h-4.438v2.429h3.956v.953h-3.956v2.552h4.6Z" transform="translate(-60.341 -32.728)" fill="#a7a7a7"/>
    </g>
    <rect id="Rectangle_1892" data-name="Rectangle 1892" width="38.772" height="0.902" transform="translate(133.093 40.605)" fill="#a7a7a7"/>
  </g>
</svg>
